<svg preserveAspectRatio="none" width="100%" height="100%" overflow="visible" style="display: block;" viewBox="0 0 130.5 130.5" fill="none" xmlns="http://www.w3.org/2000/svg">
<g id="check-verified-02">
<path id="Icon" d="M48.9375 65.25L59.8125 76.125L84.2812 51.6562M97.3377 27.1794C98.4574 29.8874 100.607 32.0399 103.313 33.1637L112.802 37.0945C115.51 38.2163 117.662 40.368 118.784 43.0762C119.905 45.7844 119.905 48.8274 118.784 51.5356L114.856 61.0186C113.734 63.728 113.732 66.774 114.859 69.4821L118.78 78.9623C119.337 80.3036 119.623 81.7414 119.623 83.1935C119.623 84.6455 119.337 86.0834 118.782 87.4249C118.226 88.7665 117.412 89.9853 116.385 91.0119C115.358 92.0385 114.139 92.8527 112.797 93.408L103.314 97.336C100.606 98.4557 98.4541 100.605 97.3303 103.311L93.3997 112.801C92.2779 115.509 90.1263 117.661 87.4182 118.783C84.7101 119.905 81.6672 119.905 78.9591 118.783L69.4765 114.855C66.7683 113.736 63.7266 113.738 61.02 114.861L51.5306 118.786C48.824 119.905 45.7838 119.905 43.0779 118.784C40.372 117.663 38.2216 115.514 37.099 112.808L33.1672 103.316C32.0475 100.608 29.8983 98.4552 27.1921 97.3314L17.7027 93.4006C14.9957 92.2793 12.8448 90.129 11.7226 87.4223C10.6005 84.7156 10.5989 81.6741 11.7184 78.9663L15.6462 69.4834C16.7652 66.7751 16.7629 63.7332 15.6399 61.0266L11.7177 51.53C11.1616 50.1887 10.8752 48.7509 10.875 47.2988C10.8748 45.8468 11.1606 44.4089 11.7163 43.0674C12.272 41.7258 13.0865 40.5069 14.1134 39.4803C15.1403 38.4537 16.3594 37.6396 17.701 37.0843L27.1837 33.1563C29.8892 32.0376 32.0404 29.891 33.165 27.1878L37.0956 17.698C38.2174 14.9898 40.369 12.8381 43.0771 11.7163C45.7852 10.5946 48.828 10.5946 51.5362 11.7163L61.0188 15.6443C63.727 16.7633 66.7687 16.7611 69.4752 15.638L78.9687 11.7224C81.6764 10.6013 84.7186 10.6015 87.4262 11.7231C90.1338 12.8446 92.2851 14.9957 93.407 17.7032L97.3388 27.1958L97.3377 27.1794Z" stroke="var(--stroke-0, white)" stroke-width="4" stroke-linecap="round" stroke-linejoin="round"/>
</g>
</svg>
