<svg preserveAspectRatio="none" width="100%" height="100%" overflow="visible" style="display: block;" viewBox="0 0 17 17" fill="none" xmlns="http://www.w3.org/2000/svg">
<g id="compass-03" clip-path="url(#clip0_0_26)">
<g id="Icon">
<path d="M8.5 15.5833C12.412 15.5833 15.5833 12.412 15.5833 8.5C15.5833 4.58798 12.412 1.41667 8.5 1.41667C4.58798 1.41667 1.41667 4.58798 1.41667 8.5C1.41667 12.412 4.58798 15.5833 8.5 15.5833Z" stroke="var(--stroke-0, #DFEAFF)" stroke-width="1.5" stroke-linecap="round" stroke-linejoin="round"/>
<path d="M10.4282 5.85506C10.7742 5.73971 10.9472 5.68203 11.0623 5.72306C11.1624 5.75877 11.2412 5.83757 11.2769 5.9377C11.318 6.05276 11.2603 6.22579 11.1449 6.57184L10.0913 9.73287C10.0584 9.83143 10.042 9.88071 10.014 9.92163C9.9892 9.95788 9.95788 9.9892 9.92163 10.014C9.88071 10.042 9.83143 10.0584 9.73287 10.0913L6.57184 11.1449C6.22579 11.2603 6.05276 11.318 5.9377 11.2769C5.83757 11.2412 5.75877 11.1624 5.72306 11.0623C5.68203 10.9472 5.73971 10.7742 5.85506 10.4282L6.90874 7.26713C6.94159 7.16857 6.95801 7.11929 6.98601 7.07837C7.0108 7.04212 7.04212 7.0108 7.07837 6.98601C7.11929 6.95801 7.16857 6.94159 7.26713 6.90874L10.4282 5.85506Z" stroke="var(--stroke-0, #DFEAFF)" stroke-width="1.5" stroke-linecap="round" stroke-linejoin="round"/>
</g>
</g>
<defs>
<clipPath id="clip0_0_26">
<rect width="17" height="17" fill="white"/>
</clipPath>
</defs>
</svg>
