<svg preserveAspectRatio="none" width="100%" height="100%" overflow="visible" style="display: block;" viewBox="0 0 17 17" fill="none" xmlns="http://www.w3.org/2000/svg">
<g id="diamond-01">
<path id="Icon" d="M1.77051 6.375H15.2288M7.08301 2.125L5.66634 6.375L8.49967 14.5208L11.333 6.375L9.91634 2.125M8.935 14.3526L15.2807 6.73777C15.3882 6.60872 15.442 6.54419 15.4626 6.47216C15.4807 6.40865 15.4807 6.34135 15.4626 6.27784C15.442 6.20581 15.3882 6.14128 15.2807 6.01223L12.2113 2.3289C12.1488 2.25395 12.1176 2.21647 12.0793 2.18953C12.0454 2.16566 12.0075 2.14794 11.9675 2.13716C11.9223 2.125 11.8735 2.125 11.7759 2.125H5.22342C5.12586 2.125 5.07708 2.125 5.03187 2.13716C4.99182 2.14794 4.95398 2.16566 4.92006 2.18953C4.88178 2.21647 4.85055 2.25395 4.78809 2.3289L1.71865 6.01223C1.6111 6.14128 1.55733 6.20581 1.53678 6.27784C1.51866 6.34135 1.51866 6.40865 1.53678 6.47216C1.55733 6.54419 1.6111 6.60871 1.71865 6.73777L8.06435 14.3526C8.21384 14.532 8.28859 14.6217 8.37809 14.6544C8.4566 14.6831 8.54274 14.6831 8.62126 14.6544C8.71075 14.6217 8.7855 14.532 8.935 14.3526Z" stroke="var(--stroke-0, #DFEAFF)" stroke-width="1.5" stroke-linecap="round" stroke-linejoin="round"/>
</g>
</svg>
