<svg preserveAspectRatio="none" width="100%" height="100%" overflow="visible" style="display: block;" viewBox="0 0 17 17" fill="none" xmlns="http://www.w3.org/2000/svg">
<g id="flash-off">
<path id="Icon" d="M5.66667 5.66667L2.89953 8.98723C2.65246 9.28372 2.52892 9.43196 2.52703 9.55716C2.52539 9.666 2.57389 9.76955 2.65856 9.83797C2.75595 9.91667 2.94892 9.91667 3.33486 9.91667H8.5L7.79167 15.5833L11.3333 11.3333M11.0854 7.08333H13.6651C14.0511 7.08333 14.2441 7.08333 14.3414 7.16203C14.4261 7.23045 14.4746 7.334 14.473 7.44284C14.4711 7.56804 14.3475 7.71628 14.1005 8.01277L13.1398 9.16563M7.48903 3.47979L9.20831 1.41667L8.78351 4.81505M14.875 14.875L2.125 2.125" stroke="var(--stroke-0, #DFEAFF)" stroke-width="1.5" stroke-linecap="round" stroke-linejoin="round"/>
</g>
</svg>
