<svg preserveAspectRatio="none" width="100%" height="100%" overflow="visible" style="display: block;" viewBox="0 0 17 17" fill="none" xmlns="http://www.w3.org/2000/svg">
<g id="play-square">
<g id="Icon">
<path d="M6.72917 6.35044C6.72917 6.01237 6.72917 5.84333 6.79982 5.74896C6.86139 5.66672 6.95563 5.61527 7.0581 5.60795C7.17569 5.59955 7.31788 5.69096 7.60226 5.87378L10.946 8.02333C11.1928 8.18197 11.3162 8.26129 11.3588 8.36215C11.396 8.45028 11.396 8.54972 11.3588 8.63785C11.3162 8.73871 11.1928 8.81803 10.946 8.97667L7.60226 11.1262C7.31788 11.309 7.17569 11.4005 7.0581 11.3921C6.95563 11.3847 6.86139 11.3333 6.79982 11.251C6.72917 11.1567 6.72917 10.9876 6.72917 10.6496V6.35044Z" stroke="var(--stroke-0, #DFEAFF)" stroke-width="1.5" stroke-linecap="round" stroke-linejoin="round"/>
<path d="M2.125 5.525C2.125 4.33489 2.125 3.73983 2.35661 3.28527C2.56034 2.88543 2.88543 2.56034 3.28527 2.35661C3.73983 2.125 4.33489 2.125 5.525 2.125H11.475C12.6651 2.125 13.2602 2.125 13.7147 2.35661C14.1146 2.56034 14.4397 2.88543 14.6434 3.28527C14.875 3.73983 14.875 4.33489 14.875 5.525V11.475C14.875 12.6651 14.875 13.2602 14.6434 13.7147C14.4397 14.1146 14.1146 14.4397 13.7147 14.6434C13.2602 14.875 12.6651 14.875 11.475 14.875H5.525C4.33489 14.875 3.73983 14.875 3.28527 14.6434C2.88543 14.4397 2.56034 14.1146 2.35661 13.7147C2.125 13.2602 2.125 12.6651 2.125 11.475V5.525Z" stroke="var(--stroke-0, #DFEAFF)" stroke-width="1.5" stroke-linecap="round" stroke-linejoin="round"/>
</g>
</g>
</svg>
